<svg width="47" height="68" viewBox="0 0 47 68" fill="none" xmlns="http://www.w3.org/2000/svg">
<path d="M36.0728 38.7051C38.2253 32.9948 37.5067 26.7687 34.1278 21.5101C40.0162 19.9314 44.7284 15.7424 46.9677 9.80119C47.0651 9.54363 46.935 9.25605 46.6781 9.1593L42.6425 7.63797C42.385 7.54122 42.0981 7.67133 42.0006 7.92889C41.7958 8.4727 41.5563 8.98848 41.298 9.48959L26.2876 3.83131C26.4237 3.28417 26.5852 2.73769 26.79 2.19455C26.8868 1.93766 26.7567 1.65007 26.4998 1.55332L22.4643 0.0319923C22.2074 -0.0647589 21.9198 0.0653548 21.823 0.322246C19.6051 6.20472 20.3117 12.4555 23.7314 17.59C18.4928 19.1 13.3276 22.8599 10.9275 29.2262C8.52741 35.5931 9.92597 41.8272 12.8645 46.4192C6.90533 48.0186 2.24993 52.2476 0.0319923 58.1301C-0.0647589 58.3876 0.0653546 58.6752 0.322246 58.772L4.35777 60.2933C4.61533 60.39 4.90225 60.2599 4.99966 60.0024C5.20384 59.4592 5.44339 58.9428 5.70228 58.4417L20.7134 64.0999C20.5766 64.6464 20.4158 65.1922 20.211 65.7367C20.1135 65.9936 20.2436 66.2812 20.5005 66.3786L24.5361 67.8993C24.793 67.996 25.0805 67.8659 25.1773 67.609C27.4172 61.6678 26.6426 55.4097 23.2609 50.3373C29.2709 48.6171 33.9203 44.4148 36.0728 38.7051ZM40.8056 10.3684C40.3118 11.1804 39.748 11.9264 39.1168 12.597L25.8872 7.60994C25.8532 6.68647 25.9166 5.75299 26.0787 4.8175L40.8056 10.3684ZM29.9835 16.7746C28.8839 15.6676 28.0011 14.4472 27.3378 13.1515L34.3753 15.8038C33.0195 16.3382 31.5469 16.6685 29.9835 16.7746ZM35.6464 15.2179L26.754 11.8663C26.3603 10.8448 26.1028 9.78584 25.9726 8.7069L38.3288 13.3643C37.5181 14.0923 36.6193 14.7121 35.6464 15.2179ZM22.5844 1.1423L25.6897 2.31265C23.9355 7.4418 25.0338 12.7591 28.6537 16.8227C27.3886 16.852 26.0747 17.0182 24.7536 17.3258C21.4394 12.5429 20.652 6.69114 22.5844 1.1423ZM4.25101 59.1883L1.14563 58.0173C3.3569 52.5746 7.81145 48.6972 13.4577 47.2926C14.2477 48.3956 15.1252 49.3878 16.056 50.2452C10.6539 50.9078 6.31882 54.1773 4.25101 59.1883ZM19.6805 54.7865L12.643 52.1342C13.9969 51.5984 15.4661 51.2641 17.0222 51.1586C18.1265 52.2703 19.0146 53.4907 19.6805 54.7865ZM11.3566 52.714L20.249 56.0663C20.646 57.0892 20.9116 58.1474 21.0403 59.2297L8.68422 54.5716C9.49426 53.847 10.387 53.2204 11.3566 52.714ZM6.19671 57.5636C6.69181 56.7535 7.26097 56.0102 7.89619 55.339L21.1257 60.326C21.1564 61.2461 21.0884 62.1789 20.9229 63.1144L6.19671 57.5636ZM24.416 66.789L21.3106 65.6186C23.2009 60.1038 21.815 54.4729 17.5767 50.3112C17.5566 50.2899 17.5379 50.2699 17.5153 50.2525C17.3284 50.071 17.1436 49.8875 16.9454 49.7114C15.9039 48.7846 14.9257 47.6796 14.0669 46.4352L14.0649 46.4319C11.0316 42.0307 9.48625 35.8713 11.859 29.5771C14.903 21.5014 22.6471 17.8482 28.9706 17.8115C29.2348 17.8102 29.4937 17.7935 29.754 17.7808C29.7833 17.7828 29.812 17.7808 29.8414 17.7775C35.7725 17.4485 40.5294 14.133 42.7493 8.74293L45.8547 9.91396C43.0342 16.854 36.5926 21.1705 28.9246 21.2158C28.6577 21.2172 28.3861 21.2292 28.1119 21.2472C28.1092 21.2472 28.1065 21.2479 28.1038 21.2479C23.2309 21.5795 17.2844 24.5908 14.963 30.7475C12.5102 37.2545 15.4194 43.7982 19.1594 47.1238C24.889 52.2189 26.8788 59.7141 24.416 66.789ZM19.0873 45.6652C17.931 44.4548 16.9074 42.9148 16.1781 41.1699L24.2378 44.2079C22.5396 45.04 20.7534 45.5184 19.0873 45.6652ZM25.3868 43.576L15.719 39.9315C15.4054 38.944 15.1926 37.9051 15.1025 36.8341L27.8983 41.6577C27.1223 42.401 26.2756 43.0402 25.3868 43.576ZM28.6503 40.8763L15.0564 35.7519C15.0538 34.8477 15.1505 33.9256 15.3487 32.9974L30.2637 38.6197C29.798 39.4471 29.2535 40.1971 28.6503 40.8763ZM15.5922 32.0239C15.6837 31.7157 15.7784 31.4074 15.8945 31.0985C16.1014 30.5506 16.3482 30.0389 16.6125 29.5438L31.5929 35.1907C31.4654 35.7378 31.3126 36.2857 31.1058 36.8328C30.9897 37.1411 30.8596 37.4367 30.7241 37.7282L15.5922 32.0239ZM17.1209 28.6703C17.64 27.8583 18.2312 27.1223 18.8818 26.4691L31.9065 31.3787C31.9666 32.3015 31.9265 33.245 31.7824 34.1972L17.1209 28.6703ZM19.6985 25.7118C20.5506 24.9851 21.4721 24.3726 22.4289 23.8762L30.941 27.085C31.3333 28.0918 31.6256 29.1601 31.7884 30.2691L19.6985 25.7118ZM23.7107 23.295C25.1152 22.7265 26.5505 22.3835 27.9083 22.2647C28.8498 23.2503 29.7066 24.4527 30.3845 25.8105L23.7107 23.295ZM22.6564 49.4732C21.8864 48.4416 21.0043 47.4661 20.0101 46.5606C24.6475 45.8734 29.9094 42.828 32.0366 37.1838C34.1645 31.5388 32.2221 25.7785 29.1921 22.2014C30.5366 22.1767 31.8431 22.0265 33.1029 21.7596C36.4705 26.8114 37.2198 32.8393 35.1413 38.3535C33.0628 43.8683 28.5202 47.9025 22.6564 49.4732Z" fill="#7E1212"/>
</svg>
