<svg width="43" height="38" viewBox="0 0 43 38" fill="none" xmlns="http://www.w3.org/2000/svg">
<path d="M23.2419 3.85661L21.4979 5.60442L19.7484 3.85501C15.2878 -0.605489 8.05592 -0.605489 3.59539 3.85501C-0.865131 8.31554 -0.865131 15.5476 3.59539 20.0079L20.3731 36.7856C20.9955 37.4081 22.0045 37.4081 22.6269 36.7856L39.4176 20.005C43.8682 15.5295 43.8758 8.31794 39.4144 3.85661C34.9457 -0.612033 27.7105 -0.612033 23.2419 3.85661ZM37.1574 17.7571L21.5 33.4048L5.8493 17.7542C2.63358 14.5384 2.63358 9.32466 5.8493 6.10892C9.06502 2.8932 14.2787 2.8932 17.4944 6.10892L20.3791 8.9935C21.0119 9.62645 22.0419 9.61413 22.6596 8.96619L25.4956 6.11051C28.7195 2.88667 33.9368 2.88665 37.1606 6.11051C40.377 9.327 40.3715 14.5252 37.1574 17.7571Z" fill="#7E1212"/>
</svg>
