<svg width="41" height="41" viewBox="0 0 41 41" fill="none" xmlns="http://www.w3.org/2000/svg">
<g clip-path="url(#clip0_115_125)">
<rect width="41" height="41" rx="20.5" fill="white"/>
<path d="M19.5 31C19.5 31.8284 20.1716 32.5 21 32.5C21.8284 32.5 22.5 31.8284 22.5 31L19.5 31ZM22.0607 8.93934C21.4749 8.35355 20.5251 8.35355 19.9393 8.93934L10.3934 18.4853C9.80761 19.0711 9.80761 20.0208 10.3934 20.6066C10.9792 21.1924 11.9289 21.1924 12.5147 20.6066L21 12.1213L29.4853 20.6066C30.0711 21.1924 31.0208 21.1924 31.6066 20.6066C32.1924 20.0208 32.1924 19.0711 31.6066 18.4853L22.0607 8.93934ZM22.5 31L22.5 10L19.5 10L19.5 31L22.5 31Z" fill="#7E1212"/>
</g>
<defs>
<clipPath id="clip0_115_125">
<rect width="41" height="41" rx="20.5" fill="white"/>
</clipPath>
</defs>
</svg>
