<svg xmlns="http://www.w3.org/2000/svg">

   <symbol id="Facebook" viewBox="0 0 26 26">
      <path
         d="M26 13.0796C26 5.85577 20.18 0 13.0016 0C5.82002 0.0016248 0 5.85577 0 13.0812C0 19.6081 4.75416 25.0186 10.9674 26V16.8605H7.66904V13.0812H10.9706V10.1972C10.9706 6.92001 12.9123 5.10999 15.8808 5.10999C17.3041 5.10999 18.7908 5.36508 18.7908 5.36508V8.58218H17.1514C15.5379 8.58218 15.0342 9.59118 15.0342 10.6262V13.0796H18.638L18.0629 16.8589H15.0326V25.9984C21.2458 25.017 26 19.6064 26 13.0796Z" />
   </symbol>

   <symbol id="Instagram" viewBox="0 0 26 26">
      <path
         d="M13 0C9.47213 0 9.0285 0.01625 7.64237 0.078C6.25625 0.143 5.31213 0.36075 4.485 0.6825C3.6174 1.00883 2.83155 1.52072 2.18238 2.18238C1.52112 2.83188 1.0093 3.61764 0.6825 4.485C0.36075 5.3105 0.141375 6.25625 0.078 7.6375C0.01625 9.02687 0 9.46888 0 13.0016C0 16.5311 0.01625 16.9731 0.078 18.3593C0.143 19.7437 0.36075 20.6879 0.6825 21.515C1.01562 22.3697 1.45925 23.0945 2.18238 23.8176C2.90388 24.5407 3.62863 24.986 4.48338 25.3175C5.31213 25.6392 6.25463 25.8586 7.63913 25.922C9.02688 25.9837 9.46887 26 13 26C16.5311 26 16.9715 25.9837 18.3593 25.922C19.7421 25.857 20.6895 25.6392 21.5166 25.3175C22.3837 24.991 23.169 24.4791 23.8176 23.8176C24.5407 23.0945 24.9844 22.3697 25.3175 21.515C25.6376 20.6879 25.857 19.7437 25.922 18.3593C25.9837 16.9731 26 16.5311 26 13C26 9.46887 25.9837 9.02688 25.922 7.63913C25.857 6.25625 25.6376 5.3105 25.3175 4.485C24.9907 3.61762 24.4789 2.83185 23.8176 2.18238C23.1687 1.52047 22.3827 1.00855 21.515 0.6825C20.6862 0.36075 19.7405 0.141375 18.3576 0.078C16.9699 0.01625 16.5295 0 12.9967 0H13.0016H13ZM11.8349 2.34325H13.0016C16.4726 2.34325 16.8837 2.35462 18.2536 2.418C19.5211 2.47487 20.2101 2.68775 20.6684 2.86488C21.2745 3.1005 21.7084 3.38325 22.1634 3.83825C22.6184 4.29325 22.8995 4.7255 23.1351 5.33325C23.3139 5.78988 23.5251 6.47888 23.582 7.74638C23.6454 9.11625 23.6584 9.52738 23.6584 12.9967C23.6584 16.4661 23.6454 16.8789 23.582 18.2487C23.5251 19.5162 23.3123 20.2036 23.1351 20.6619C22.9267 21.2263 22.594 21.7367 22.1617 22.1553C21.7067 22.6103 21.2745 22.8914 20.6667 23.127C20.2118 23.3057 19.5227 23.517 18.2536 23.5755C16.8837 23.6373 16.4726 23.6519 13.0016 23.6519C9.53063 23.6519 9.11788 23.6373 7.748 23.5755C6.4805 23.517 5.79313 23.3057 5.33488 23.127C4.77019 22.9189 4.25933 22.5868 3.83987 22.1553C3.40722 21.7361 3.07405 21.2252 2.86488 20.6602C2.68775 20.2036 2.47487 19.5146 2.418 18.2471C2.35625 16.8773 2.34325 16.4661 2.34325 12.9935C2.34325 9.5225 2.35625 9.113 2.418 7.74312C2.4765 6.47563 2.68775 5.78662 2.8665 5.32837C3.10213 4.72225 3.38487 4.28837 3.83987 3.83337C4.29487 3.37838 4.72713 3.09725 5.33488 2.86162C5.79313 2.68288 6.4805 2.47163 7.748 2.41313C8.94725 2.35788 9.412 2.34162 11.8349 2.34V2.34325ZM19.9404 4.50125C19.7355 4.50125 19.5327 4.5416 19.3434 4.62C19.1541 4.6984 18.9821 4.8133 18.8373 4.95816C18.6924 5.10302 18.5775 5.275 18.4991 5.46426C18.4207 5.65353 18.3804 5.85639 18.3804 6.06125C18.3804 6.26611 18.4207 6.46897 18.4991 6.65824C18.5775 6.8475 18.6924 7.01948 18.8373 7.16434C18.9821 7.3092 19.1541 7.4241 19.3434 7.5025C19.5327 7.5809 19.7355 7.62125 19.9404 7.62125C20.3541 7.62125 20.7509 7.45689 21.0435 7.16434C21.336 6.87178 21.5004 6.47499 21.5004 6.06125C21.5004 5.64751 21.336 5.25072 21.0435 4.95816C20.7509 4.66561 20.3541 4.50125 19.9404 4.50125ZM13.0016 6.3245C12.1161 6.31068 11.2367 6.47316 10.4146 6.80248C9.59248 7.13179 8.84409 7.62137 8.21299 8.24269C7.5819 8.86401 7.08072 9.60467 6.73862 10.4215C6.39652 11.2384 6.22034 12.1152 6.22034 13.0008C6.22034 13.8864 6.39652 14.7632 6.73862 15.5801C7.08072 16.397 7.5819 17.1376 8.21299 17.7589C8.84409 18.3803 9.59248 18.8698 10.4146 19.1991C11.2367 19.5285 12.1161 19.6909 13.0016 19.6771C14.7543 19.6498 16.4258 18.9344 17.6556 17.6853C18.8853 16.4362 19.5746 14.7537 19.5746 13.0008C19.5746 11.248 18.8853 9.56542 17.6556 8.31634C16.4258 7.06727 14.7543 6.35184 13.0016 6.3245ZM13.0016 8.66613C14.151 8.66613 15.2534 9.12273 16.0661 9.93549C16.8789 10.7482 17.3355 11.8506 17.3355 13C17.3355 14.1494 16.8789 15.2518 16.0661 16.0645C15.2534 16.8773 14.151 17.3339 13.0016 17.3339C11.8522 17.3339 10.7499 16.8773 9.93711 16.0645C9.12435 15.2518 8.66775 14.1494 8.66775 13C8.66775 11.8506 9.12435 10.7482 9.93711 9.93549C10.7499 9.12273 11.8522 8.66613 13.0016 8.66613Z" />
   </symbol>

   <symbol id="Whatsapp" viewBox="0 0 26 26">
      <path
         d="M22.2024 3.78047C19.7637 1.34046 16.5122 0 13.0496 0C5.91981 0 0.111695 5.7819 0.105489 12.8795C0.105489 15.1528 0.701193 17.3642 1.83055 19.3224L0 26L6.86301 24.2086C8.75561 25.234 10.884 25.7776 13.0496 25.7776H13.0558C20.1857 25.7776 25.9938 19.9957 26 12.8919C25.9938 9.45118 24.6473 6.2143 22.2024 3.78047ZM13.0496 23.5971C11.1136 23.5971 9.221 23.0782 7.57041 22.1022L7.17947 21.8674L3.10883 22.9299L4.19475 18.9765L3.94033 18.5688C2.86062 16.8639 2.29594 14.8933 2.29594 12.8734C2.29594 6.98028 7.12363 2.17439 13.0558 2.17439C15.9289 2.17439 18.6282 3.29247 20.6635 5.31243C22.6926 7.33856 23.8095 10.0257 23.8095 12.8857C23.8033 18.7973 18.9757 23.5971 13.0496 23.5971ZM18.9508 15.579C18.6282 15.4184 17.0396 14.6401 16.7418 14.5289C16.4439 14.4239 16.2267 14.3683 16.0158 14.6895C15.7986 15.0107 15.178 15.7396 14.9919 15.9496C14.8057 16.1658 14.6134 16.1905 14.2907 16.0299C13.968 15.8693 12.9255 15.5296 11.6907 14.43C10.7289 13.5776 10.0835 12.5213 9.89117 12.2C9.70501 11.8788 9.87255 11.7059 10.0339 11.5453C10.1766 11.4032 10.3566 11.1684 10.5179 10.9831C10.6792 10.7978 10.7351 10.6619 10.8406 10.4457C10.9461 10.2295 10.8964 10.0442 10.8158 9.88358C10.7351 9.72298 10.0897 8.13542 9.81671 7.49299C9.55609 6.86291 9.28926 6.9494 9.09069 6.94322C8.90453 6.93086 8.68735 6.93086 8.47017 6.93086C8.25298 6.93086 7.90549 7.01117 7.60764 7.33238C7.30978 7.6536 6.47828 8.43193 6.47828 10.0195C6.47828 11.607 7.63866 13.1328 7.8 13.349C7.96134 13.5652 10.0773 16.8144 13.3227 18.2105C14.0921 18.5441 14.694 18.7417 15.1656 18.89C15.9413 19.1371 16.6425 19.1 17.201 19.0197C17.8215 18.9271 19.1122 18.2414 19.3852 17.4878C19.652 16.7341 19.652 16.0917 19.5714 15.9558C19.4907 15.8199 19.2735 15.7396 18.9508 15.579Z" />
   </symbol>

   <symbol id="ArrowTop" viewBox="0 0 22 26">
      <path fill-rule="evenodd" clip-rule="evenodd"
         d="M11 26C10.5833 26 10.1837 25.8288 9.88903 25.5241C9.59439 25.2194 9.42886 24.8061 9.42886 24.3752V5.55003L2.6855 12.527C2.39048 12.8321 1.99035 13.0035 1.57313 13.0035C1.15591 13.0035 0.755778 12.8321 0.460759 12.527C0.16574 12.2219 0 11.8081 0 11.3766C0 10.9452 0.16574 10.5314 0.460759 10.2263L9.88763 0.477351C10.0336 0.326037 10.207 0.205987 10.3978 0.124075C10.5887 0.0421636 10.7933 0 11 0C11.2067 0 11.4113 0.0421636 11.6022 0.124075C11.793 0.205987 11.9664 0.326037 12.1124 0.477351L21.5392 10.2263C21.8343 10.5314 22 10.9452 22 11.3766C22 11.8081 21.8343 12.2219 21.5392 12.527C21.2442 12.8321 20.8441 13.0035 20.4269 13.0035C20.0097 13.0035 19.6095 12.8321 19.3145 12.527L12.5711 5.55003V24.3752C12.5711 24.8061 12.4056 25.2194 12.111 25.5241C11.8163 25.8288 11.4167 26 11 26Z" />
   </symbol>

   <symbol id="ArrowRight" viewBox="0 0 30 26">
      <path fill-rule="evenodd" clip-rule="evenodd"
         d="M0 13C0 12.5075 0.197522 12.0353 0.549114 11.687C0.900705 11.3388 1.37757 11.1432 1.87479 11.1432H23.5961L15.5458 3.17377C15.1937 2.82512 14.996 2.35223 14.996 1.85915C14.996 1.36608 15.1937 0.893193 15.5458 0.544534C15.8978 0.195875 16.3753 0 16.8731 0C17.371 0 17.8484 0.195875 18.2005 0.544534L29.4492 11.6854C29.6238 11.8579 29.7623 12.0628 29.8568 12.2883C29.9513 12.5139 30 12.7558 30 13C30 13.2442 29.9513 13.4861 29.8568 13.7117C29.7623 13.9372 29.6238 14.1421 29.4492 14.3146L18.2005 25.4555C17.8484 25.8041 17.371 26 16.8731 26C16.3753 26 15.8978 25.8041 15.5458 25.4555C15.1937 25.1068 14.996 24.6339 14.996 24.1408C14.996 23.6478 15.1937 23.1749 15.5458 22.8262L23.5961 14.8568H1.87479C1.37757 14.8568 0.900705 14.6612 0.549114 14.313C0.197522 13.9647 0 13.4925 0 13Z" />
   </symbol>

   <svg id="Casamento" viewBox="0 0 31 26">
      <path
         d="M16.7674 2.37129L15.4955 3.60793L14.2197 2.37016C10.9667 -0.785799 5.69266 -0.785799 2.43971 2.37016C-0.813237 5.52613 -0.813237 10.643 2.43971 13.7989L14.6753 25.6697C15.1292 26.1101 15.865 26.1101 16.3189 25.6697L28.5639 13.7968C31.8096 10.6303 31.8152 5.52783 28.5616 2.37129C25.3027 -0.790429 20.0263 -0.790429 16.7674 2.37129ZM26.9156 12.2064L15.4971 23.2776L4.08342 12.2043C1.73828 9.92901 1.73828 6.24012 4.08342 3.96487C6.42857 1.68964 10.2308 1.68964 12.5759 3.96487L14.6796 6.00581C15.1411 6.45365 15.8923 6.44493 16.3428 5.98649L18.411 3.966C20.7621 1.68503 24.5669 1.68501 26.918 3.966C29.2636 6.24178 29.2596 9.91969 26.9156 12.2064Z" />
   </svg>

   <symbol id="Divorcio" viewBox="0 0 30 26">
      <path
         d="M14.9957 3.60793L16.2265 2.37128C19.3803 -0.790418 24.4865 -0.790433 27.6402 2.37128C30.7889 5.52782 30.7835 10.6303 27.6425 13.7967L15.7925 25.6697C15.3532 26.1101 14.6411 26.1101 14.2019 25.6697L2.36101 13.7989C-0.787003 10.6429 -0.787003 5.52613 2.36101 2.37016C5.50902 -0.785803 10.613 -0.785803 13.761 2.37016L14.9957 3.60793ZM14.9972 23.2776L26.0474 12.2064C28.3157 9.9197 28.3196 6.24177 26.0496 3.96599C23.8746 1.78554 20.4142 1.68945 18.1259 3.67769C18.1209 3.68292 18.1157 3.68812 18.1106 3.69328L16.5995 5.19521L15.8156 5.98648C15.7743 6.02979 15.7305 6.06908 15.6847 6.10437L13.8304 7.94732L18.0232 11.9627C18.2421 12.1724 18.3675 12.4617 18.3709 12.7653C18.3744 13.0687 18.2556 13.3608 18.0416 13.5755L14.2923 17.3343C13.853 17.7747 13.1408 17.7747 12.7016 17.3343C12.2623 16.8939 12.2623 16.1799 12.7016 15.7395L15.6371 12.7965L11.4408 8.77769C11.2213 8.56744 11.0959 8.27714 11.0931 7.97277C11.0902 7.6684 11.2103 7.37582 11.4259 7.16153L13.4009 5.19858L12.1702 3.96487C9.90078 1.68965 6.22119 1.68965 3.9517 3.96487C1.68221 6.2401 1.68221 9.92899 3.9517 12.2042L14.9972 23.2776Z" />
   </symbol>

   <symbol id="Inventario" viewBox="0 0 36 44">
      <path
         d="M11.675 0.0999756C10.0096 0.0999756 8.59274 1.16435 8.06764 2.64998H4.025C1.9125 2.64998 0.199997 4.36248 0.199997 6.47498V37.075C0.199997 39.1874 1.9125 40.9 4.025 40.9H10.4076C10.4262 40.609 10.4716 40.3137 10.5461 40.0156L10.9625 38.35H4.025C3.32084 38.35 2.75 37.779 2.75 37.075V6.47498C2.75 5.77082 3.32084 5.19998 4.025 5.19998H8.06764C8.59274 6.68561 10.0096 7.74998 11.675 7.74998H19.325C20.9904 7.74998 22.4072 6.68561 22.9322 5.19998H26.975C27.6791 5.19998 28.25 5.77082 28.25 6.47498V18.5408C29.0645 18.1917 29.9294 17.9974 30.8 17.9576V6.47498C30.8 4.36248 29.0874 2.64998 26.975 2.64998H22.9322C22.4072 1.16435 20.9904 0.0999756 19.325 0.0999756H11.675ZM10.4 3.92498C10.4 3.22082 10.9708 2.64998 11.675 2.64998H19.325C20.0291 2.64998 20.6 3.22082 20.6 3.92498C20.6 4.62913 20.0291 5.19998 19.325 5.19998H11.675C10.9708 5.19998 10.4 4.62913 10.4 3.92498ZM15.4484 34.2118L27.7635 21.8969C29.6257 20.0344 32.6454 20.0344 34.5077 21.8969C36.37 23.7591 36.37 26.7786 34.5077 28.6411L22.1927 40.9561C21.4746 41.6742 20.575 42.1834 19.5899 42.4297L15.7703 43.3847C14.1091 43.7998 12.6045 42.2953 13.0198 40.6343L13.9747 36.8146C14.221 35.8296 14.7304 34.9299 15.4484 34.2118Z" />
   </symbol>

   <symbol id="Testamento" viewBox="0 0 31 41">
      <path
         d="M22.3125 18.5875C21.2563 18.5875 20.4 17.7312 20.4 16.675C20.4 15.6187 21.2563 14.7625 22.3125 14.7625C23.3687 14.7625 24.225 15.6187 24.225 16.675C24.225 17.7312 23.3687 18.5875 22.3125 18.5875ZM22.3125 26.2375C21.2563 26.2375 20.4 25.3812 20.4 24.325C20.4 23.2688 21.2563 22.4125 22.3125 22.4125C23.3687 22.4125 24.225 23.2688 24.225 24.325C24.225 25.3812 23.3687 26.2375 22.3125 26.2375ZM20.4 31.975C20.4 33.0312 21.2563 33.8875 22.3125 33.8875C23.3687 33.8875 24.225 33.0312 24.225 31.975C24.225 30.9188 23.3687 30.0625 22.3125 30.0625C21.2563 30.0625 20.4 30.9188 20.4 31.975ZM17.85 16.675C17.85 15.9708 17.2791 15.4 16.575 15.4H7.65C6.94584 15.4 6.375 15.9708 6.375 16.675C6.375 17.3791 6.94584 17.95 7.65 17.95H16.575C17.2791 17.95 17.85 17.3791 17.85 16.675ZM17.85 24.325C17.85 23.6209 17.2791 23.05 16.575 23.05H7.65C6.94584 23.05 6.375 23.6209 6.375 24.325C6.375 25.029 6.94584 25.6 7.65 25.6H16.575C17.2791 25.6 17.85 25.029 17.85 24.325ZM17.85 31.975C17.85 31.2709 17.2791 30.7 16.575 30.7H7.65C6.94584 30.7 6.375 31.2709 6.375 31.975C6.375 32.679 6.94584 33.25 7.65 33.25H16.575C17.2791 33.25 17.85 32.679 17.85 31.975ZM11.475 0.0999756C9.80957 0.0999756 8.39274 1.16435 7.86764 2.64998H3.825C1.7125 2.64998 0 4.36248 0 6.47498V37.075C0 39.1874 1.7125 40.9 3.825 40.9H26.775C28.8874 40.9 30.6 39.1874 30.6 37.075V6.47498C30.6 4.36248 28.8874 2.64998 26.775 2.64998H22.7322C22.2072 1.16435 20.7904 0.0999756 19.125 0.0999756H11.475ZM10.2 3.92498C10.2 3.22082 10.7708 2.64998 11.475 2.64998H19.125C19.8291 2.64998 20.4 3.22082 20.4 3.92498C20.4 4.62913 19.8291 5.19998 19.125 5.19998H11.475C10.7708 5.19998 10.2 4.62913 10.2 3.92498ZM3.825 5.19998H7.86764C8.39274 6.68561 9.80957 7.74998 11.475 7.74998H19.125C20.7904 7.74998 22.2072 6.68561 22.7322 5.19998H26.775C27.4791 5.19998 28.05 5.77082 28.05 6.47498V37.075C28.05 37.779 27.4791 38.35 26.775 38.35H3.825C3.12084 38.35 2.55 37.779 2.55 37.075V6.47498C2.55 5.77082 3.12084 5.19998 3.825 5.19998Z" />
   </symbol>

   <symbol id="Partilha" viewBox="0 0 39 42">
      <path
         d="M18.4743 3.81137C19.0671 3.31271 19.9329 3.31271 20.5257 3.81137L34.8695 15.874C35.2297 16.1768 35.4375 16.6233 35.4375 17.0938V37.9688C35.4375 38.2622 35.1997 38.5 34.9062 38.5H4.09375C3.80035 38.5 3.5625 38.2622 3.5625 37.9688V17.0938C3.5625 16.6233 3.77039 16.1768 4.13047 15.874L18.4743 3.81137ZM22.5774 1.37185C20.7986 -0.124111 18.2014 -0.124111 16.4226 1.37185L2.07891 13.4345C0.998645 14.343 0.375 15.6823 0.375 17.0938V37.9688C0.375 40.0226 2.03994 41.6875 4.09375 41.6875H34.9062C36.9601 41.6875 38.625 40.0226 38.625 37.9688V17.0938C38.625 15.6823 38.0013 14.343 36.9212 13.4345L22.5774 1.37185ZM21.0938 10.3437C21.0938 9.46353 20.3802 8.74999 19.5 8.74999C18.6198 8.74999 17.9062 9.46353 17.9062 10.3437V13.5312C17.9062 14.4114 18.6198 15.125 19.5 15.125C20.3802 15.125 21.0938 14.4114 21.0938 13.5312V10.3437ZM19.5 19.375C20.3802 19.375 21.0938 20.0886 21.0938 20.9688V24.1563C21.0938 25.0364 20.3802 25.75 19.5 25.75C18.6198 25.75 17.9062 25.0364 17.9062 24.1563V20.9688C17.9062 20.0886 18.6198 19.375 19.5 19.375ZM21.0938 31.5938C21.0938 30.7136 20.3802 30 19.5 30C18.6198 30 17.9062 30.7136 17.9062 31.5938V34.7813C17.9062 35.6614 18.6198 36.375 19.5 36.375C20.3802 36.375 21.0938 35.6614 21.0938 34.7813V31.5938Z" />
   </symbol>

   <symbol id="Paternidade" viewBox="0 0 45 65">
      <path
         d="M34.4692 37.0198C36.5141 31.595 35.8314 25.6802 32.6214 20.6846C38.2154 19.1848 42.692 15.2053 44.8193 9.56113C44.9118 9.31645 44.7882 9.04325 44.5442 8.95133L40.7104 7.50607C40.4657 7.41416 40.1932 7.53777 40.1006 7.78244C39.906 8.29906 39.6785 8.78906 39.4331 9.26511L25.1732 3.88975C25.3025 3.36996 25.4559 2.8508 25.6505 2.33482C25.7425 2.09077 25.6188 1.81757 25.3748 1.72566L21.541 0.280393C21.297 0.188479 21.0238 0.312087 20.9319 0.556133C18.8248 6.14448 19.4961 12.0827 22.7448 16.9605C17.7682 18.395 12.8612 21.9669 10.5811 28.0149C8.30105 34.0634 9.62968 39.9858 12.4213 44.3482C6.76007 45.8676 2.33745 49.8852 0.230405 55.4736C0.138491 55.7182 0.262099 55.9915 0.506146 56.0834L4.33989 57.5286C4.58457 57.6205 4.85715 57.4969 4.94969 57.2523C5.14366 56.7363 5.37123 56.2456 5.61718 55.7696L19.8777 61.145C19.7478 61.6641 19.595 62.1826 19.4004 62.6999C19.3079 62.9439 19.4315 63.2171 19.6755 63.3097L23.5093 64.7543C23.7533 64.8462 24.0265 64.7226 24.1184 64.4786C26.2464 58.8344 25.5105 52.8892 22.2979 48.0704C28.0073 46.4362 32.4243 42.444 34.4692 37.0198ZM38.9653 10.0999C38.4963 10.8714 37.9606 11.5801 37.361 12.2171L24.7929 7.47945C24.7606 6.60215 24.8208 5.71534 24.9748 4.82663L38.9653 10.0999ZM28.6843 16.1859C27.6397 15.1343 26.801 13.9749 26.171 12.7439L32.8566 15.2636C31.5685 15.7713 30.1695 16.0851 28.6843 16.1859ZM34.0641 14.707L25.6163 11.523C25.2423 10.5525 24.9976 9.54655 24.874 8.52156L36.6123 12.9461C35.8422 13.6377 34.9883 14.2265 34.0641 14.707ZM21.6551 1.33518L24.6053 2.44702C22.9388 7.31971 23.9821 12.3712 27.421 16.2315C26.2191 16.2594 24.971 16.4173 23.7159 16.7095C20.5674 12.1658 19.8194 6.60658 21.6551 1.33518ZM4.23847 56.4789L1.28836 55.3664C3.38906 50.1958 7.62089 46.5123 12.9848 45.178C13.7354 46.2258 14.5689 47.1684 15.4532 47.9829C10.3213 48.6124 6.20289 51.7184 4.23847 56.4789ZM18.8965 52.2972L12.2109 49.7775C13.497 49.2684 14.8928 48.9509 16.3711 48.8507C17.4202 49.9068 18.2639 51.0662 18.8965 52.2972ZM10.9887 50.3283L19.4365 53.513C19.8137 54.4847 20.066 55.49 20.1883 56.5182L8.45002 52.093C9.21956 51.4046 10.0677 50.8094 10.9887 50.3283ZM6.08689 54.9354C6.55723 54.1659 7.09794 53.4597 7.7014 52.822L20.2695 57.5597C20.2986 58.4338 20.234 59.32 20.0768 60.2087L6.08689 54.9354ZM23.3952 63.6995L20.4451 62.5877C22.2409 57.3486 20.9243 51.9992 16.8978 48.0457C16.8788 48.0254 16.8611 48.0064 16.8395 47.9899C16.662 47.8175 16.4864 47.6432 16.2982 47.4758C15.3087 46.5953 14.3794 45.5456 13.5636 44.3634L13.5617 44.3603C10.68 40.1791 9.21195 34.3277 11.4661 28.3483C14.3578 20.6763 21.7147 17.2058 27.7221 17.1709C27.9731 17.1697 28.219 17.1538 28.4663 17.1418C28.4942 17.1437 28.5214 17.1418 28.5493 17.1386C34.1839 16.8261 38.7029 13.6763 40.8119 8.55579L43.762 9.66826C41.0825 16.2613 34.963 20.3619 27.6783 20.405C27.4248 20.4063 27.1668 20.4177 26.9063 20.4348C26.9037 20.4348 26.9012 20.4355 26.8987 20.4355C22.2694 20.7505 16.6202 23.6112 14.4149 29.4601C12.0847 35.6418 14.8485 41.8583 18.4014 45.0176C23.8446 49.858 25.7348 56.9784 23.3952 63.6995ZM18.333 43.6319C17.2344 42.4821 16.262 41.019 15.5692 39.3614L23.2259 42.2475C21.6127 43.038 19.9158 43.4925 18.333 43.6319ZM24.3175 41.6472L15.1331 38.1849C14.8352 37.2468 14.633 36.2598 14.5474 35.2424L26.7034 39.8248C25.9662 40.5309 25.1618 41.1382 24.3175 41.6472ZM27.4178 39.0825L14.5036 34.2143C14.5011 33.3553 14.593 32.4793 14.7813 31.5976L28.9506 36.9387C28.5081 37.7247 27.9909 38.4372 27.4178 39.0825ZM15.0126 30.6727C15.0995 30.3799 15.1895 30.087 15.2998 29.7935C15.4963 29.2731 15.7308 28.7869 15.9819 28.3166L30.2133 33.6812C30.0922 34.201 29.947 34.7214 29.7505 35.2412C29.6402 35.534 29.5166 35.8148 29.3879 36.0918L15.0126 30.6727ZM16.4649 27.4868C16.958 26.7154 17.5197 26.0162 18.1377 25.3956L30.5112 30.0598C30.5682 30.9364 30.5302 31.8327 30.3933 32.7373L16.4649 27.4868ZM18.9136 24.6762C19.7231 23.9859 20.5985 23.404 21.5075 22.9323L29.594 25.9807C29.9667 26.9372 30.2443 27.9521 30.399 29.0056L18.9136 24.6762ZM22.7252 22.3802C24.0595 21.8402 25.423 21.5143 26.7129 21.4015C27.6073 22.3378 28.4213 23.48 29.0653 24.77L22.7252 22.3802ZM21.7236 47.2495C20.9921 46.2695 20.1541 45.3428 19.2096 44.4826C23.6151 43.8297 28.614 40.9366 30.6348 35.5746C32.6563 30.2119 30.811 24.7396 27.9325 21.3413C29.2098 21.3178 30.451 21.1752 31.6477 20.9217C34.847 25.7208 35.5588 31.4473 33.5843 36.6858C31.6097 41.9249 27.2942 45.7573 21.7236 47.2495Z" />
   </symbol>

   <symbol id="GuardaJudicial" viewBox="0 0 98 47">
      <path
         d="M13.5555 20.1128C13.9122 22.5209 12.2489 24.7615 9.84382 25.1181C7.43368 25.4747 5.19182 23.813 4.83431 21.4049C4.47752 18.9968 6.14014 16.7561 8.55028 16.3995C10.9561 16.0429 13.1979 17.7047 13.5555 20.1128Z" />
      <path
         d="M19.4793 26.6751C18.6032 25.7273 18.214 24.4143 18.5065 23.0991L14.1188 25.2192C13.2998 25.6335 12.449 25.8551 11.5873 25.9829L7.94503 26.5221C6.74394 26.7004 5.65984 27.3032 4.91954 28.2466L0.395377 33.7601C-0.225034 34.5376 -0.102974 35.6961 0.674887 36.3162C1.06779 36.6504 1.57697 36.7688 2.10277 36.6909C2.5354 36.6266 2.94636 36.4173 3.23237 36.0318L5.8469 32.8535L4.8957 38.3331C4.72886 39.1878 5.48 39.9601 6.38931 39.8252L7.44524 39.6692L7.63952 45.2679C7.69153 46.2886 8.49033 47.0495 9.51159 46.9975C10.4837 46.952 11.2941 46.1464 11.2421 45.1264L11.0673 39.3264C11.0464 39.1849 11.1359 39.1221 11.2775 39.1011L12.5754 38.9084C12.7169 38.8875 12.8282 38.9705 12.8426 39.0629L14.3593 44.6645C14.5912 45.5588 15.455 46.1161 16.3643 45.9818L16.5586 45.953C17.5025 45.7176 18.0868 44.6984 17.8478 43.7549L16.4083 38.3403L17.4635 38.1844C18.3245 38.0566 18.8192 37.0994 18.4602 36.3227L14.7139 28.897C15.0426 28.8024 15.4124 28.6487 15.7265 28.4538L19.4793 26.6751Z" />
      <path
         d="M43.7815 19.4523L37.0661 12.1731C35.8982 10.8766 34.1374 10.258 32.4148 10.5128L28.8166 11.0463C27.094 11.3018 25.5888 12.4041 24.8478 13.9842L20.4854 22.9049C19.9907 23.8577 20.224 25.095 21.1434 25.6934C22.2961 26.5012 23.7926 26.0356 24.3559 24.8748L26.6057 20.2348L29.7959 41.7409C29.9526 42.7948 30.8215 43.6943 31.8977 43.6798C33.2721 43.7239 34.2681 42.4982 34.076 41.2053L32.1858 28.4632C32.1504 28.2242 32.3043 27.9535 32.5954 27.9109L33.6989 27.7471C33.9373 27.7117 34.2052 27.8705 34.2471 28.1571L36.1308 40.8516C36.2875 41.9062 37.1556 42.8013 38.2354 42.8396C39.6134 42.8786 40.6087 41.6536 40.4173 40.3608L37.2055 18.7138L40.7055 22.5014C41.2305 23.0594 41.9514 23.2954 42.6223 23.1958C43.1033 23.1243 43.5591 22.9085 43.9419 22.5086C44.6937 21.6171 44.5876 20.2622 43.7808 19.4487L43.7815 19.4523Z" />
      <path
         d="M34.4494 4.09266C34.8379 6.7101 33.0265 9.15069 30.4069 9.53905C27.7866 9.92741 25.3447 8.117 24.9569 5.49883C24.5683 2.88139 26.3797 0.440803 28.9993 0.0524459C31.6196 -0.335912 34.0615 1.4745 34.4494 4.09266Z" />
      <path
         d="M79.4519 23.1316L83.7991 25.2249C84.6232 25.6371 85.4711 25.8587 86.3812 25.9908L90.0256 26.5178C91.2231 26.6903 92.2646 27.2829 93.0576 28.2271L97.597 33.7284C98.2195 34.5036 98.1018 35.6586 97.3752 36.2881C96.9838 36.623 96.4305 36.7371 95.9488 36.6678C95.5162 36.605 95.1081 36.3978 94.8214 36.0138L92.0284 32.6261L90.1766 45.4195C90.0307 46.4265 89.1062 47.0769 88.1478 46.9383C87.1403 46.7925 86.4902 45.8649 86.6289 44.907L87.6552 37.817C87.6899 37.578 87.5346 37.308 87.2471 37.2669L85.617 37.0309C85.3787 36.9962 85.1078 37.155 85.066 37.4423L84.0324 44.5807C83.8873 45.5877 82.9628 46.2381 82.0043 46.0995C81.0452 45.9609 80.3468 45.0261 80.4855 44.0682L82.7187 28.6386C82.5836 28.5736 82.4861 28.5599 82.3481 28.4899L78.5961 26.6766C78.9456 26.2853 79.2649 25.7952 79.4346 25.2791C79.5798 24.615 79.6419 23.844 79.4519 23.1316Z" />
      <path
         d="M54.1725 19.5714L60.8584 12.272C62.0248 10.9755 63.7799 10.3461 65.5075 10.5958L69.1035 11.1156C70.8304 11.3653 72.3356 12.4662 73.0867 14.0398L77.473 22.9403C77.9706 23.8953 77.746 25.134 76.8244 25.7353C75.6782 26.5474 74.1802 26.0832 73.6125 24.9282L70.8976 19.3483L72.6873 29.6355C72.8845 30.6417 72.0185 31.544 70.9633 31.3917L69.6683 31.2048L68.6796 41.7749C68.5756 42.8367 67.7587 43.7426 66.6681 43.8321C65.2836 43.9253 64.2248 42.7941 64.3707 41.445L65.3739 30.7774C65.3941 30.6359 65.3146 30.5255 65.1695 30.5046L63.7336 30.2967C63.5877 30.2757 63.4765 30.3588 63.4563 30.5002L61.3972 41.0148C61.1826 42.156 60.0921 42.9269 58.943 42.7609L58.8462 42.7465C57.6552 42.5292 56.8867 41.3901 57.1576 40.2041L59.216 29.6932L57.9217 29.5062C56.9142 29.3604 56.2952 28.243 56.7697 27.3335L61.4037 17.9753L57.2175 22.5577C56.6946 23.1178 55.9745 23.356 55.3028 23.2586C54.8218 23.1893 54.3653 22.9749 53.9811 22.5764C53.2726 21.7398 53.3686 20.3878 54.1725 19.5714Z" />
      <path
         d="M84.3928 20.1279C84.044 22.5367 85.7153 24.768 88.1225 25.1159C90.5334 25.4646 92.7695 23.7985 93.1176 21.389C93.4664 18.9802 91.7952 16.7453 89.3843 16.3967C86.9778 16.0487 84.741 17.7184 84.3928 20.1279Z" />
      <path
         d="M63.449 4.1865C63.0699 6.80538 64.8863 9.23514 67.5081 9.61411C70.1291 9.99309 72.5638 8.17835 72.943 5.55874C73.3222 2.93986 71.5021 0.505765 68.8811 0.126791C66.26 -0.252182 63.8282 1.56689 63.449 4.1865Z" />
   </symbol>

   <symbol id="MediacaoDeConflitos" viewBox="0 0 43 39">
      <path
         d="M22.0115 0.298218C21.5134 0.298218 21.0686 0.526676 20.7764 0.884548L20.6551 0.976369C16.0983 -0.405009 10.9429 0.694721 7.33895 4.27556C4.13329 7.46072 2.90334 11.8656 3.64908 15.9867L3.61717 16.018L1.58322 18.0391C-0.185415 19.7962 -0.185415 22.6454 1.58322 24.4028C2.62226 25.4351 4.04059 25.8612 5.39254 25.6806C5.59176 26.4162 5.98197 27.1117 6.56316 27.6891C7.35313 28.4741 8.36229 28.9084 9.39487 28.9922C9.47902 30.0183 9.91616 31.0213 10.7063 31.8063C11.5327 32.6276 12.5991 33.0649 13.6811 33.1187C13.7354 34.1937 14.1757 35.2528 15.0019 36.0739C16.6175 37.6792 19.1502 37.8181 20.9243 36.4906L21.7456 37.3066C23.523 39.0725 26.4043 39.0725 28.1816 37.3066C28.9687 36.5244 29.4071 35.5276 29.497 34.5059C30.5232 34.4186 31.5251 33.9848 32.3107 33.2041C33.0985 32.4217 33.5351 31.4232 33.6216 30.401C34.6344 30.3063 35.6213 29.8736 36.3971 29.1027C37.0053 28.4985 37.4043 27.7652 37.5943 26.9917C38.9261 27.1498 40.3147 26.721 41.3367 25.7056C43.1053 23.9483 43.1053 21.0993 41.3367 19.3419L39.5655 17.582L39.9295 16.1657C40.7206 13.0859 40.3228 9.82376 38.8149 7.02206C36.589 2.88577 32.2557 0.308864 27.5452 0.308864H24.131C23.9854 0.301788 23.8392 0.298218 23.6921 0.298218H22.0115ZM28.2254 10.8066L35.5858 18.1198L35.5941 18.1285L35.6223 18.1574L39.0754 21.5884C39.5954 22.105 39.5954 22.9425 39.0754 23.4591C38.5557 23.9755 37.7129 23.9755 37.1929 23.4591L33.7398 20.0278C33.1155 19.4076 32.1031 19.4076 31.4788 20.0278L31.4441 20.0623C30.8196 20.6828 30.8196 21.6885 31.4441 22.309L34.1361 24.9838C34.6563 25.5008 34.6563 26.3389 34.1361 26.8559C33.6618 27.327 32.9163 27.3695 32.3957 26.9802C31.7567 26.5025 30.8608 26.5673 30.2981 27.1321C29.7356 27.6968 29.6793 28.5876 30.1666 29.2176C30.5669 29.7355 30.5272 30.4831 30.0497 30.9576C29.5682 31.4359 28.8077 31.472 28.286 31.064C27.6512 30.5674 26.7432 30.6195 26.1701 31.1854C25.5968 31.7513 25.5388 32.6531 26.0345 33.287C26.4461 33.8131 26.4073 34.5762 25.9204 35.0601C25.3919 35.585 24.5353 35.585 24.0069 35.0601L23.217 34.2751L23.4405 34.0528C25.2092 32.2957 25.2092 29.4465 23.4405 27.6891C22.6141 26.868 21.5478 26.4305 20.4658 26.3767C20.4116 25.3019 19.9713 24.2426 19.1451 23.4217C18.355 22.6367 17.3458 22.2024 16.3133 22.1186C16.2292 21.0925 15.792 20.0895 15.0019 19.3043C13.9629 18.272 12.5445 17.8461 11.1926 18.0267C10.9934 17.2908 10.6032 16.5955 10.022 16.018C9.10536 15.1073 7.89362 14.6686 6.69266 14.7018C6.38071 11.7848 7.34986 8.75806 9.60008 6.52224C11.6916 4.44414 14.4706 3.46566 17.2096 3.5868L14.0276 5.99768C11.8518 7.64611 11.4327 10.7428 13.0919 12.9103C14.7474 15.0728 17.8461 15.4922 20.0167 13.8475L24.0304 10.8066H28.2254ZM15.9525 8.53833L22.6214 3.48572H23.6921C23.7973 3.48572 23.9017 3.48852 24.0052 3.49407C24.0334 3.4956 24.0619 3.49636 24.0904 3.49636H27.5452C31.0901 3.49636 34.3414 5.43562 36.0082 8.53259C37.0595 10.4861 37.3893 12.7368 36.9513 14.8974L30.1256 8.10492C29.8253 7.79443 29.4118 7.61912 28.98 7.61912H23.4949C23.1473 7.61912 22.8094 7.73268 22.5323 7.94255L18.0919 11.3069C17.3193 11.8922 16.2121 11.7423 15.623 10.9727C15.0376 10.208 15.1849 9.11992 15.9525 8.53833ZM8.82429 25.4426C8.4675 25.0879 8.35558 24.5824 8.48856 24.1329C8.54933 23.9276 8.66124 23.7341 8.82429 23.5719L10.8583 21.551C11.3781 21.0345 12.2209 21.0345 12.7408 21.551C13.2547 22.0617 13.2606 22.886 12.7584 23.4036L12.7402 23.4217L10.7063 25.4426L10.6888 25.4602C10.5295 25.6126 10.3414 25.718 10.1423 25.776C9.69003 25.9081 9.1811 25.797 8.82429 25.4426ZM7.78032 18.2845C7.94073 18.4505 8.04904 18.6481 8.10525 18.8563C8.22429 19.2979 8.10952 19.7888 7.76083 20.1352L5.72689 22.1562C5.20703 22.6726 4.36419 22.6726 3.84435 22.1562C3.32449 21.6397 3.32449 20.8022 3.84435 20.2856L5.87829 18.2647C6.39815 17.7481 7.24099 17.7481 7.76083 18.2647L7.78032 18.2845ZM19.1455 33.8272C18.9823 33.9895 18.787 34.1009 18.5798 34.1612C18.128 34.2928 17.6195 34.1814 17.263 33.8272C16.9065 33.4729 16.7945 32.9678 16.927 32.5188C16.9877 32.3131 17.0997 32.1191 17.263 31.9567L19.297 29.9359C19.8168 29.4193 20.6598 29.4193 21.1795 29.9359C21.6993 30.4522 21.6993 31.2897 21.1795 31.8063L19.1455 33.8272ZM14.85 29.5597C14.687 29.7217 14.4924 29.8328 14.2859 29.8932C13.8335 30.0255 13.3243 29.9144 12.9674 29.5597C12.6105 29.2051 12.4986 28.6991 12.6318 28.2497C12.6904 28.0521 12.7964 27.8653 12.9498 27.707L12.968 27.6891L15.0019 25.6682L15.0194 25.6506C15.5406 25.1519 16.37 25.1578 16.8839 25.6682C17.4038 26.1848 17.4038 27.0223 16.8839 27.5389L14.85 29.5597Z" />
   </symbol>

   <symbol id="Phone" viewBox="0 0 19 20">
      <path fill-rule="evenodd" clip-rule="evenodd"
         d="M2.23817 1.1069C3.11943 0.225642 4.57365 0.316178 5.3388 1.29994L7.46882 4.03854C7.85971 4.54111 7.99783 5.19548 7.84342 5.81314L7.19354 8.41266C7.12493 8.6871 7.20534 8.97741 7.40537 9.17744L10.3226 12.0946C10.5226 12.2947 10.8129 12.3751 11.0873 12.3065L13.6869 11.6566C14.3045 11.5022 14.9589 11.6403 15.4615 12.0312L18.2001 14.1612C19.1838 14.9263 19.2744 16.3806 18.3931 17.2618L17.1653 18.4896C16.2869 19.368 14.973 19.7537 13.7486 19.3233C10.7083 18.2544 7.85458 16.5044 5.42508 14.0749C2.99558 11.6454 1.24563 8.79167 0.176745 5.75142C-0.253748 4.52696 0.131967 3.2131 1.01038 2.33469L2.23817 1.1069Z" />
   </symbol>

   <symbol id="Check" viewBox="0 0 20 20">
      <path
         d="M10 0C15.5228 0 20 4.47715 20 10C20 15.5228 15.5228 20 10 20C4.47715 20 0 15.5228 0 10C0 4.47715 4.47715 0 10 0ZM10 1.5C5.30558 1.5 1.5 5.30558 1.5 10C1.5 14.6944 5.30558 18.5 10 18.5C14.6944 18.5 18.5 14.6944 18.5 10C18.5 5.30558 14.6944 1.5 10 1.5ZM8.75 11.4393L13.2197 6.96967C13.5126 6.67678 13.9874 6.67678 14.2803 6.96967C14.5466 7.23594 14.5708 7.6526 14.3529 7.94621L14.2803 8.0303L9.2803 13.0303C9.0141 13.2966 8.5974 13.3208 8.3038 13.1029L8.2197 13.0303L5.71967 10.5303C5.42678 10.2374 5.42678 9.7626 5.71967 9.4697C5.98594 9.2034 6.4026 9.1792 6.69621 9.3971L6.78033 9.4697L8.75 11.4393L13.2197 6.96967L8.75 11.4393Z" />
   </symbol>

   <symbol id="Local" viewBox="0 0 14 18">
      <path
         d="M7 18C7 18 13.75 11.6029 13.75 6.75C13.75 3.02208 10.7279 0 7 0C3.27208 0 0.25 3.02208 0.25 6.75C0.25 11.6029 7 18 7 18ZM7 10.125C5.13604 10.125 3.625 8.61396 3.625 6.75C3.625 4.88604 5.13604 3.375 7 3.375C8.86396 3.375 10.375 4.88604 10.375 6.75C10.375 8.61396 8.86396 10.125 7 10.125Z" />
   </symbol>

   <symbol id="Mail" viewBox="0 0 18 16">
      <path
         d="M2.25 0.25C1.17925 0.25 0.283196 0.997941 0.0557836 1.99987L9 7.46578L17.9442 1.99987C17.7168 0.997941 16.8207 0.25 15.75 0.25H2.25Z" />
      <path d="M0 11.2757V3.28422L6.52859 7.27392L0 11.2757Z" />
      <path
         d="M7.60658 7.93268L0.215855 12.4629C0.57668 13.2238 1.35189 13.75 2.25 13.75H9.28807C9.10151 13.2222 9 12.6542 9 12.0625C9 10.5065 9.70196 9.11452 10.8065 8.18586L10.3934 7.93268L9 8.78422L7.60658 7.93268Z" />
      <path
         d="M18 8.88025V3.28422L11.4714 7.27392L11.8516 7.50699C12.5197 7.18219 13.2698 7 14.0625 7C15.6528 7 17.0719 7.73331 18 8.88025Z" />
      <path
         d="M17.8131 11.7748C17.8131 13.0881 17.1638 14.0522 16.0276 14.0522C15.4619 14.0522 14.9012 13.7964 14.7683 13.3242H14.7192C14.5864 13.7915 14.1092 14.0472 13.578 14.0472C12.7123 14.0472 12.1614 13.4373 12.1614 12.4339V11.8387C12.1614 10.8894 12.7025 10.2647 13.578 10.2647C14.2371 10.2647 14.5568 10.6385 14.6503 10.973H14.6847V10.3335H15.7029V12.7979C15.7029 13.1028 15.9046 13.2701 16.1653 13.2701C16.5194 13.2701 16.8834 12.8028 16.8834 11.7059V11.5731C16.8834 10.1368 15.8161 8.95628 14.0896 8.95628H14.0453C12.2647 8.95628 11.0743 10.1565 11.0743 12.0207V12.1978C11.0743 14.2981 12.4663 15.1835 13.9666 15.1835H14.0158C14.5864 15.1835 15.0684 15.1048 15.3438 14.9818V15.8032C15.0979 15.9164 14.6208 16 13.9518 16H13.9026C11.7433 16 10.125 14.6719 10.125 12.2273V11.9863C10.125 9.65475 11.7236 8.125 14.0453 8.125H14.0846C16.4703 8.125 17.8131 9.73345 17.8131 11.5386V11.7748ZM13.2681 12.0109V12.2666C13.2681 12.9257 13.5239 13.1668 13.9223 13.1668C14.2715 13.1668 14.5568 12.9749 14.5568 12.3306V11.9174C14.5568 11.337 14.247 11.1206 13.9125 11.1206C13.5239 11.1206 13.2681 11.396 13.2681 12.0109Z" />
   </symbol>

   <symbol id="ArrowRightBold" viewBox="0 0 11 16">
      <path
         d="M10.4986 9.03802L2.43792 15.6559C1.48804 16.4369 5.40673e-07 15.8022 5.40673e-07 14.6169V1.38106C-0.00024182 1.11579 0.0810009 0.856073 0.234 0.633015C0.386999 0.409956 0.605269 0.233013 0.862671 0.123373C1.12007 0.0137337 1.4057 -0.0239541 1.68533 0.014823C1.96497 0.0536002 2.22677 0.167198 2.43939 0.342014L10.4972 6.95992C10.6551 7.08944 10.7817 7.24916 10.8684 7.42838C10.9551 7.60759 11 7.80214 11 7.99897C11 8.1958 10.9551 8.39035 10.8684 8.56956C10.7817 8.74878 10.6551 8.9085 10.4972 9.03802H10.4986Z" />
   </symbol>

   <symbol id="ArrowBottonBold" viewBox="0 0 16 11">
      <path
         d="M6.96198 10.4986L0.344074 2.43792C-0.436938 1.48951 0.197807 5.40673e-07 1.38312 5.40673e-07H14.6189C14.8842 -0.00024182 15.1439 0.0810009 15.367 0.234C15.59 0.386999 15.767 0.605269 15.8766 0.862671C15.9863 1.12007 16.024 1.4057 15.9852 1.68533C15.9464 1.96497 15.8328 2.22677 15.658 2.43939L9.04008 10.4972C8.91056 10.6551 8.75084 10.7817 8.57162 10.8684C8.39241 10.9551 8.19786 11 8.00103 11C7.8042 11 7.60965 10.9551 7.43044 10.8684C7.25122 10.7817 7.0915 10.6551 6.96198 10.4972V10.4986Z" />
   </symbol>

</svg>