<svg width="32" height="32" viewBox="0 0 32 32" fill="none" xmlns="http://www.w3.org/2000/svg">
<path d="M16.0001 0.166626C24.7445 0.166626 31.8334 7.25545 31.8334 16C31.8334 24.7444 24.7445 31.8333 16.0001 31.8333C7.25557 31.8333 0.166748 24.7444 0.166748 16C0.166748 7.25545 7.25557 0.166626 16.0001 0.166626ZM16.0001 2.54163C8.56725 2.54163 2.54175 8.56713 2.54175 16C2.54175 23.4328 8.56725 29.4583 16.0001 29.4583C23.4329 29.4583 29.4584 23.4328 29.4584 16C29.4584 8.56713 23.4329 2.54163 16.0001 2.54163ZM14.0209 18.2789L21.0979 11.2019C21.5617 10.7382 22.3135 10.7382 22.7772 11.2019C23.1989 11.6235 23.2372 12.2832 22.8922 12.7481L22.7772 12.8813L14.8606 20.7979C14.4391 21.2196 13.7793 21.2579 13.3144 20.9129L13.1813 20.7979L9.22289 16.8396C8.75915 16.3758 8.75915 15.6241 9.22289 15.1603C9.64449 14.7387 10.3042 14.7004 10.7691 15.0454L10.9023 15.1603L14.0209 18.2789Z" fill="#7E1212"/>
</svg>
