<svg width="51" height="51" viewBox="0 0 51 51" fill="none" xmlns="http://www.w3.org/2000/svg">
<path d="M26.0116 6.29822C25.5135 6.29822 25.0687 6.52668 24.7765 6.88455L24.6552 6.97637C20.0984 5.59499 14.943 6.69472 11.339 10.2756C8.13338 13.4607 6.90343 17.8656 7.64918 21.9867L7.61726 22.018L5.58331 24.0391C3.81468 25.7962 3.81468 28.6454 5.58331 30.4028C6.62235 31.4351 8.04069 31.8612 9.39263 31.6806C9.59185 32.4162 9.98206 33.1117 10.5633 33.6891C11.3532 34.4741 12.3624 34.9084 13.395 34.9922C13.4791 36.0183 13.9162 37.0213 14.7064 37.8063C15.5328 38.6276 16.5992 39.0649 17.6812 39.1187C17.7355 40.1937 18.1757 41.2528 19.002 42.0739C20.6176 43.6792 23.1503 43.8181 24.9244 42.4907L25.7457 43.3066C27.5231 45.0725 30.4044 45.0725 32.1817 43.3066C32.9688 42.5244 33.4072 41.5276 33.4971 40.5059C34.5233 40.4186 35.5252 39.9848 36.3108 39.2041C37.0986 38.4217 37.5352 37.4232 37.6217 36.401C38.6345 36.3063 39.6214 35.8736 40.3972 35.1027C41.0054 34.4985 41.4044 33.7652 41.5944 32.9917C42.9261 33.1498 44.3148 32.721 45.3368 31.7056C47.1054 29.9483 47.1054 27.0993 45.3368 25.3419L43.5656 23.582L43.9296 22.1657C44.7207 19.0859 44.3229 15.8238 42.815 13.0221C40.5891 8.88577 36.2558 6.30886 31.5453 6.30886H28.1311C27.9855 6.30179 27.8393 6.29822 27.6922 6.29822H26.0116ZM32.2255 16.8066L39.5859 24.1198L39.5942 24.1285L39.6224 24.1574L43.0755 27.5884C43.5955 28.105 43.5955 28.9425 43.0755 29.4591C42.5558 29.9755 41.713 29.9755 41.193 29.4591L37.7399 26.0278C37.1156 25.4076 36.1032 25.4076 35.4789 26.0278L35.4442 26.0623C34.8197 26.6828 34.8197 27.6885 35.4442 28.309L38.1362 30.9838C38.6564 31.5008 38.6564 32.3389 38.1362 32.8559C37.6619 33.327 36.9164 33.3695 36.3958 32.9802C35.7568 32.5025 34.8609 32.5673 34.2982 33.1321C33.7357 33.6968 33.6794 34.5876 34.1667 35.2176C34.567 35.7355 34.5273 36.4831 34.0498 36.9576C33.5683 37.4359 32.8078 37.472 32.2861 37.064C31.6513 36.5674 30.7433 36.6195 30.1702 37.1854C29.5969 37.7513 29.5389 38.6531 30.0346 39.287C30.4462 39.8131 30.4074 40.5762 29.9205 41.0601C29.392 41.585 28.5354 41.585 28.007 41.0601L27.2171 40.2751L27.4406 40.0528C29.2093 38.2957 29.2093 35.4465 27.4406 33.6891C26.6142 32.868 25.5479 32.4305 24.4659 32.3767C24.4117 31.3019 23.9714 30.2426 23.1452 29.4217C22.3551 28.6367 21.3459 28.2024 20.3134 28.1186C20.2293 27.0925 19.7921 26.0895 19.002 25.3043C17.9629 24.272 16.5446 23.8461 15.1927 24.0267C14.9935 23.2908 14.6033 22.5955 14.0221 22.018C13.1055 21.1073 11.8937 20.6686 10.6927 20.7018C10.3808 17.7848 11.3499 14.7581 13.6002 12.5222C15.6916 10.4441 18.4707 9.46566 21.2097 9.5868L18.0277 11.9977C15.8519 13.6461 15.4328 16.7428 17.092 18.9103C18.7475 21.0728 21.8462 21.4922 24.0168 19.8475L28.0305 16.8066H32.2255ZM19.9526 14.5383L26.6215 9.48572H27.6922C27.7974 9.48572 27.9018 9.48852 28.0053 9.49407C28.0335 9.4956 28.062 9.49636 28.0905 9.49636H31.5453C35.0902 9.49636 38.3415 11.4356 40.0083 14.5326C41.0596 16.4861 41.3894 18.7368 40.9514 20.8974L34.1257 14.1049C33.8254 13.7944 33.4119 13.6191 32.9801 13.6191H27.495C27.1474 13.6191 26.8095 13.7327 26.5324 13.9425L22.092 17.3069C21.3194 17.8922 20.2122 17.7423 19.6231 16.9727C19.0377 16.208 19.1849 15.1199 19.9526 14.5383ZM12.8244 31.4426C12.4676 31.0879 12.3557 30.5824 12.4887 30.1329C12.5494 29.9276 12.6613 29.7341 12.8244 29.5719L14.8583 27.551C15.3782 27.0345 16.221 27.0345 16.7409 27.551C17.2548 28.0617 17.2607 28.886 16.7585 29.4036L16.7403 29.4217L14.7064 31.4426L14.6889 31.4602C14.5296 31.6126 14.3415 31.718 14.1424 31.776C13.6901 31.9081 13.1812 31.797 12.8244 31.4426ZM11.7804 24.2845C11.9408 24.4505 12.0491 24.6481 12.1053 24.8563C12.2244 25.2979 12.1096 25.7888 11.7609 26.1352L9.72698 28.1562C9.20712 28.6726 8.36428 28.6726 7.84444 28.1562C7.32458 27.6397 7.32458 26.8022 7.84444 26.2856L9.87839 24.2647C10.3982 23.7481 11.2411 23.7481 11.7609 24.2647L11.7804 24.2845ZM23.1456 39.8272C22.9824 39.9895 22.7871 40.1009 22.5799 40.1612C22.1281 40.2928 21.6196 40.1814 21.2631 39.8272C20.9066 39.4729 20.7946 38.9678 20.9271 38.5188C20.9878 38.3131 21.0998 38.1191 21.2631 37.9567L23.2971 35.9359C23.8169 35.4193 24.6599 35.4193 25.1796 35.9359C25.6994 36.4522 25.6994 37.2897 25.1796 37.8063L23.1456 39.8272ZM18.8501 35.5597C18.6871 35.7217 18.4925 35.8328 18.286 35.8932C17.8336 36.0255 17.3244 35.9144 16.9675 35.5597C16.6106 35.2051 16.4987 34.6991 16.6319 34.2497C16.6905 34.0521 16.7965 33.8653 16.9499 33.707L16.968 33.6891L19.002 31.6682L19.0195 31.6506C19.5407 31.1519 20.3701 31.1578 20.884 31.6682C21.4039 32.1848 21.4039 33.0223 20.884 33.5389L18.8501 35.5597Z" fill="#7E1212"/>
</svg>
