<svg width="51" height="51" viewBox="0 0 51 51" fill="none" xmlns="http://www.w3.org/2000/svg">
<path d="M21.675 5.09998C20.0095 5.09998 18.5927 6.16435 18.0676 7.64998H14.025C11.9125 7.64998 10.2 9.36248 10.2 11.475V42.075C10.2 44.1874 11.9125 45.9 14.025 45.9H20.4076C20.4261 45.609 20.4716 45.3137 20.546 45.0156L20.9625 43.35H14.025C13.3208 43.35 12.75 42.779 12.75 42.075V11.475C12.75 10.7708 13.3208 10.2 14.025 10.2H18.0676C18.5927 11.6856 20.0095 12.75 21.675 12.75H29.325C30.9904 12.75 32.4071 11.6856 32.9322 10.2H36.975C37.679 10.2 38.25 10.7708 38.25 11.475V23.5408C39.0644 23.1917 39.9294 22.9974 40.8 22.9576V11.475C40.8 9.36248 39.0874 7.64998 36.975 7.64998H32.9322C32.4071 6.16435 30.9904 5.09998 29.325 5.09998H21.675ZM20.4 8.92498C20.4 8.22082 20.9708 7.64998 21.675 7.64998H29.325C30.029 7.64998 30.6 8.22082 30.6 8.92498C30.6 9.62913 30.029 10.2 29.325 10.2H21.675C20.9708 10.2 20.4 9.62913 20.4 8.92498ZM25.4483 39.2118L37.7634 26.8969C39.6257 25.0344 42.6454 25.0344 44.5077 26.8969C46.3699 28.7591 46.3699 31.7786 44.5077 33.6411L32.1927 45.9561C31.4746 46.6742 30.575 47.1834 29.5899 47.4297L25.7703 48.3847C24.1091 48.7998 22.6045 47.2953 23.0197 45.6343L23.9746 41.8146C24.2209 40.8296 24.7303 39.9299 25.4483 39.2118Z" fill="#7E1212"/>
</svg>
