<svg width="51" height="51" viewBox="0 0 51 51" fill="none" xmlns="http://www.w3.org/2000/svg">
<path d="M25.4979 12.2256L27.2419 10.4778C31.7105 6.0092 38.9457 6.00917 43.4144 10.4778C47.8758 14.9391 47.8682 22.1508 43.4176 26.626L26.6269 43.4069C26.0045 44.0294 24.9955 44.0294 24.3731 43.4069L7.59539 26.6292C3.13487 22.1686 3.13487 14.9368 7.59539 10.4762C12.0559 6.01572 19.2878 6.01572 23.7484 10.4762L25.4979 12.2256ZM25.5 40.0261L41.1574 24.3784C44.3715 21.1465 44.377 15.9482 41.1606 12.7317C38.0787 9.64996 33.1755 9.51415 29.9332 12.3243C29.9262 12.3316 29.9187 12.339 29.9115 12.3463L27.7704 14.4691L26.6596 15.5874C26.6012 15.6486 26.5391 15.7041 26.4741 15.754L23.8468 18.3588L29.7876 24.034C30.0979 24.3304 30.2755 24.7392 30.2804 25.1683C30.2853 25.5971 30.117 26.01 29.8138 26.3134L24.5013 31.6259C23.8788 32.2484 22.8697 32.2484 22.2473 31.6259C21.6249 31.0035 21.6249 29.9944 22.2473 29.372L26.4067 25.2125L20.4609 19.5324C20.1498 19.2352 19.9721 18.8249 19.9681 18.3948C19.9641 17.9646 20.1342 17.551 20.4397 17.2482L23.2382 14.4738L21.4944 12.7301C18.2787 9.51443 13.065 9.51443 9.8493 12.7301C6.63358 15.9459 6.63358 21.1596 9.8493 24.3752L25.5 40.0261Z" fill="#7E1212"/>
</svg>
