<svg width="51" height="51" viewBox="0 0 51 51" fill="none" xmlns="http://www.w3.org/2000/svg">
<path d="M24.4743 7.81137C25.0671 7.31271 25.9329 7.31271 26.5257 7.81137L40.8695 19.874C41.2297 20.1768 41.4375 20.6233 41.4375 21.0938V41.9688C41.4375 42.2622 41.1997 42.5 40.9062 42.5H10.0938C9.80035 42.5 9.5625 42.2622 9.5625 41.9688V21.0938C9.5625 20.6233 9.77039 20.1768 10.1305 19.874L24.4743 7.81137ZM28.5774 5.37185C26.7986 3.87589 24.2014 3.87589 22.4226 5.37185L8.07891 17.4345C6.99865 18.343 6.375 19.6823 6.375 21.0938V41.9688C6.375 44.0226 8.03994 45.6875 10.0938 45.6875H40.9062C42.9601 45.6875 44.625 44.0226 44.625 41.9688V21.0938C44.625 19.6823 44.0013 18.343 42.9212 17.4345L28.5774 5.37185ZM27.0938 14.3437C27.0938 13.4635 26.3802 12.75 25.5 12.75C24.6198 12.75 23.9062 13.4635 23.9062 14.3437V17.5312C23.9062 18.4114 24.6198 19.125 25.5 19.125C26.3802 19.125 27.0938 18.4114 27.0938 17.5312V14.3437ZM25.5 23.375C26.3802 23.375 27.0938 24.0886 27.0938 24.9688V28.1563C27.0938 29.0364 26.3802 29.75 25.5 29.75C24.6198 29.75 23.9062 29.0364 23.9062 28.1563V24.9688C23.9062 24.0886 24.6198 23.375 25.5 23.375ZM27.0938 35.5938C27.0938 34.7136 26.3802 34 25.5 34C24.6198 34 23.9062 34.7136 23.9062 35.5938V38.7813C23.9062 39.6614 24.6198 40.375 25.5 40.375C26.3802 40.375 27.0938 39.6614 27.0938 38.7813V35.5938Z" fill="#7E1212"/>
</svg>
