<svg width="51" height="51" viewBox="0 0 51 51" fill="none" xmlns="http://www.w3.org/2000/svg">
<path d="M32.5125 23.5875C31.4562 23.5875 30.6 22.7312 30.6 21.675C30.6 20.6187 31.4562 19.7625 32.5125 19.7625C33.5687 19.7625 34.425 20.6187 34.425 21.675C34.425 22.7312 33.5687 23.5875 32.5125 23.5875ZM32.5125 31.2375C31.4562 31.2375 30.6 30.3812 30.6 29.325C30.6 28.2688 31.4562 27.4125 32.5125 27.4125C33.5687 27.4125 34.425 28.2688 34.425 29.325C34.425 30.3812 33.5687 31.2375 32.5125 31.2375ZM30.6 36.975C30.6 38.0312 31.4562 38.8875 32.5125 38.8875C33.5687 38.8875 34.425 38.0312 34.425 36.975C34.425 35.9188 33.5687 35.0625 32.5125 35.0625C31.4562 35.0625 30.6 35.9188 30.6 36.975ZM28.05 21.675C28.05 20.9708 27.479 20.4 26.775 20.4H17.85C17.1458 20.4 16.575 20.9708 16.575 21.675C16.575 22.3791 17.1458 22.95 17.85 22.95H26.775C27.479 22.95 28.05 22.3791 28.05 21.675ZM28.05 29.325C28.05 28.6209 27.479 28.05 26.775 28.05H17.85C17.1458 28.05 16.575 28.6209 16.575 29.325C16.575 30.029 17.1458 30.6 17.85 30.6H26.775C27.479 30.6 28.05 30.029 28.05 29.325ZM28.05 36.975C28.05 36.2709 27.479 35.7 26.775 35.7H17.85C17.1458 35.7 16.575 36.2709 16.575 36.975C16.575 37.679 17.1458 38.25 17.85 38.25H26.775C27.479 38.25 28.05 37.679 28.05 36.975ZM21.675 5.09998C20.0095 5.09998 18.5927 6.16435 18.0676 7.64998H14.025C11.9125 7.64998 10.2 9.36248 10.2 11.475V42.075C10.2 44.1874 11.9125 45.9 14.025 45.9H36.975C39.0874 45.9 40.8 44.1874 40.8 42.075V11.475C40.8 9.36248 39.0874 7.64998 36.975 7.64998H32.9322C32.4071 6.16435 30.9904 5.09998 29.325 5.09998H21.675ZM20.4 8.92498C20.4 8.22082 20.9708 7.64998 21.675 7.64998H29.325C30.029 7.64998 30.6 8.22082 30.6 8.92498C30.6 9.62913 30.029 10.2 29.325 10.2H21.675C20.9708 10.2 20.4 9.62913 20.4 8.92498ZM14.025 10.2H18.0676C18.5927 11.6856 20.0095 12.75 21.675 12.75H29.325C30.9904 12.75 32.4071 11.6856 32.9322 10.2H36.975C37.679 10.2 38.25 10.7708 38.25 11.475V42.075C38.25 42.779 37.679 43.35 36.975 43.35H14.025C13.3208 43.35 12.75 42.779 12.75 42.075V11.475C12.75 10.7708 13.3208 10.2 14.025 10.2Z" fill="#7E1212"/>
</svg>
