<svg width="98" height="47" viewBox="0 0 98 47" fill="none" xmlns="http://www.w3.org/2000/svg">
<path d="M13.5555 20.1128C13.9122 22.5209 12.2489 24.7615 9.84382 25.1181C7.43368 25.4747 5.19182 23.813 4.83431 21.4049C4.47752 18.9968 6.14014 16.7561 8.55028 16.3995C10.9561 16.0429 13.1979 17.7047 13.5555 20.1128Z" fill="#7E1212"/>
<path d="M19.4793 26.6751C18.6032 25.7273 18.214 24.4143 18.5065 23.0991L14.1188 25.2192C13.2998 25.6335 12.449 25.8551 11.5873 25.9829L7.94503 26.5221C6.74394 26.7004 5.65984 27.3032 4.91954 28.2466L0.395377 33.7601C-0.225034 34.5376 -0.102974 35.6961 0.674887 36.3162C1.06779 36.6504 1.57697 36.7688 2.10277 36.6909C2.5354 36.6266 2.94636 36.4173 3.23237 36.0318L5.8469 32.8535L4.8957 38.3331C4.72886 39.1878 5.48 39.9601 6.38931 39.8252L7.44524 39.6692L7.63952 45.2679C7.69153 46.2886 8.49033 47.0495 9.51159 46.9975C10.4837 46.952 11.2941 46.1464 11.2421 45.1264L11.0673 39.3264C11.0464 39.1849 11.1359 39.1221 11.2775 39.1011L12.5754 38.9084C12.7169 38.8875 12.8282 38.9705 12.8426 39.0629L14.3593 44.6645C14.5912 45.5588 15.455 46.1161 16.3643 45.9818L16.5586 45.953C17.5025 45.7176 18.0868 44.6984 17.8478 43.7549L16.4083 38.3403L17.4635 38.1844C18.3245 38.0566 18.8192 37.0994 18.4602 36.3227L14.7139 28.897C15.0426 28.8024 15.4124 28.6487 15.7265 28.4538L19.4793 26.6751Z" fill="#7E1212"/>
<path d="M43.7815 19.4523L37.0661 12.1731C35.8982 10.8766 34.1374 10.258 32.4148 10.5128L28.8166 11.0463C27.094 11.3018 25.5888 12.4041 24.8478 13.9842L20.4854 22.9049C19.9907 23.8577 20.224 25.095 21.1434 25.6934C22.2961 26.5012 23.7926 26.0356 24.3559 24.8748L26.6057 20.2348L29.7959 41.7409C29.9526 42.7948 30.8215 43.6943 31.8977 43.6798C33.2721 43.7239 34.2681 42.4982 34.076 41.2053L32.1858 28.4632C32.1504 28.2242 32.3043 27.9535 32.5954 27.9109L33.6989 27.7471C33.9373 27.7117 34.2052 27.8705 34.2471 28.1571L36.1308 40.8516C36.2875 41.9062 37.1556 42.8013 38.2354 42.8396C39.6134 42.8786 40.6087 41.6536 40.4173 40.3608L37.2055 18.7138L40.7055 22.5014C41.2305 23.0594 41.9514 23.2954 42.6223 23.1958C43.1033 23.1243 43.5591 22.9085 43.9419 22.5086C44.6937 21.6171 44.5876 20.2622 43.7808 19.4487L43.7815 19.4523Z" fill="#7E1212"/>
<path d="M34.4494 4.09266C34.8379 6.7101 33.0265 9.15069 30.4069 9.53905C27.7866 9.92741 25.3447 8.117 24.9569 5.49883C24.5683 2.88139 26.3797 0.440803 28.9993 0.0524459C31.6196 -0.335912 34.0615 1.4745 34.4494 4.09266Z" fill="#7E1212"/>
<path d="M79.4519 23.1316L83.7991 25.2249C84.6232 25.6371 85.4711 25.8587 86.3812 25.9908L90.0256 26.5178C91.2231 26.6903 92.2646 27.2829 93.0576 28.2271L97.597 33.7284C98.2195 34.5036 98.1018 35.6586 97.3752 36.2881C96.9838 36.623 96.4305 36.7371 95.9488 36.6678C95.5162 36.605 95.1081 36.3978 94.8214 36.0138L92.0284 32.6261L90.1766 45.4195C90.0307 46.4265 89.1062 47.0769 88.1478 46.9383C87.1403 46.7925 86.4902 45.8649 86.6289 44.907L87.6552 37.817C87.6899 37.578 87.5346 37.308 87.2471 37.2669L85.617 37.0309C85.3787 36.9962 85.1078 37.155 85.066 37.4423L84.0324 44.5807C83.8873 45.5877 82.9628 46.2381 82.0043 46.0995C81.0452 45.9609 80.3468 45.0261 80.4855 44.0682L82.7187 28.6386C82.5836 28.5736 82.4861 28.5599 82.3481 28.4899L78.5961 26.6766C78.9456 26.2853 79.2649 25.7952 79.4346 25.2791C79.5798 24.615 79.6419 23.844 79.4519 23.1316Z" fill="#7E1212"/>
<path d="M54.1725 19.5714L60.8584 12.272C62.0248 10.9755 63.7799 10.3461 65.5075 10.5958L69.1035 11.1156C70.8304 11.3653 72.3356 12.4662 73.0867 14.0398L77.473 22.9403C77.9706 23.8953 77.746 25.134 76.8244 25.7353C75.6782 26.5474 74.1802 26.0832 73.6125 24.9282L70.8976 19.3483L72.6873 29.6355C72.8845 30.6417 72.0185 31.544 70.9633 31.3917L69.6683 31.2048L68.6796 41.7749C68.5756 42.8367 67.7587 43.7426 66.6681 43.8321C65.2836 43.9253 64.2248 42.7941 64.3707 41.445L65.3739 30.7774C65.3941 30.6359 65.3146 30.5255 65.1695 30.5046L63.7336 30.2967C63.5877 30.2757 63.4765 30.3588 63.4563 30.5002L61.3972 41.0148C61.1826 42.156 60.0921 42.9269 58.943 42.7609L58.8462 42.7465C57.6552 42.5292 56.8867 41.3901 57.1576 40.2041L59.216 29.6932L57.9217 29.5062C56.9142 29.3604 56.2952 28.243 56.7697 27.3335L61.4037 17.9753L57.2175 22.5577C56.6946 23.1178 55.9745 23.356 55.3028 23.2586C54.8218 23.1893 54.3653 22.9749 53.9811 22.5764C53.2726 21.7398 53.3686 20.3878 54.1725 19.5714Z" fill="#7E1212"/>
<path d="M84.3928 20.1279C84.044 22.5367 85.7153 24.768 88.1225 25.1159C90.5334 25.4646 92.7695 23.7985 93.1176 21.389C93.4664 18.9802 91.7952 16.7453 89.3843 16.3967C86.9778 16.0487 84.741 17.7184 84.3928 20.1279Z" fill="#7E1212"/>
<path d="M63.449 4.1865C63.0699 6.80538 64.8863 9.23514 67.5081 9.61411C70.1291 9.99309 72.5638 8.17835 72.943 5.55874C73.3222 2.93986 71.5021 0.505765 68.8811 0.126791C66.26 -0.252182 63.8282 1.56689 63.449 4.1865Z" fill="#7E1212"/>
</svg>
