<svg width="44" height="46" viewBox="0 0 44 46" fill="none" xmlns="http://www.w3.org/2000/svg">
<path d="M10.7122 8.75503C16.9463 2.23758 27.0537 2.23758 33.2878 8.75503C39.5219 15.2725 39.5219 25.8395 33.2878 32.3569L31.1116 34.6069C29.5078 36.2525 27.4266 38.3685 24.8677 40.9551C23.2684 42.5716 20.7315 42.5714 19.1326 40.9547L12.7323 34.4459C11.9279 33.6202 11.2546 32.9238 10.7122 32.3569C4.4781 25.8395 4.4781 15.2725 10.7122 8.75503ZM31.3432 10.788C26.1831 5.39326 17.8169 5.39326 12.6567 10.788C7.49659 16.1827 7.49659 24.9292 12.6567 30.3239L15.383 33.1366C16.8844 34.6726 18.7716 36.59 21.0444 38.8881C21.5774 39.4269 22.4231 39.4271 22.956 38.8883L29.18 32.5604C30.0399 31.6782 30.7609 30.9326 31.3432 30.3239C36.5035 24.9292 36.5035 16.1827 31.3432 10.788ZM22 15.3304C25.0391 15.3304 27.5029 17.9061 27.5029 21.0834C27.5029 24.2607 25.0391 26.8363 22 26.8363C18.9608 26.8363 16.4972 24.2607 16.4972 21.0834C16.4972 17.9061 18.9608 15.3304 22 15.3304ZM22 18.2054C20.4796 18.2054 19.2472 19.4939 19.2472 21.0834C19.2472 22.6729 20.4796 23.9613 22 23.9613C23.5203 23.9613 24.7529 22.6729 24.7529 21.0834C24.7529 19.4939 23.5203 18.2054 22 18.2054Z" fill="#7E1212"/>
</svg>
