<svg width="66" height="45" viewBox="0 0 66 45" fill="none" xmlns="http://www.w3.org/2000/svg">
<path d="M9.55051 4.26239L7.56659 0.0113362H14.5911L22.9881 16.8682H15.4561L14.1873 14.1702H7.42817L6.17092 16.8682H3.25271L9.55051 4.26239ZM12.9762 11.5742L10.8078 6.94906L8.65082 11.5742H12.9762Z" fill="white"/>
<path d="M25.3411 0.0113362H32.3887C34.3726 0.0113362 36.0912 0.196493 37.5446 0.566808C38.9979 0.929565 40.2013 1.46614 41.1548 2.17654C42.1084 2.88694 42.8158 3.75982 43.2772 4.79519C43.7386 5.83056 43.9692 7.01708 43.9692 8.35475C43.9692 9.54882 43.7386 10.6635 43.2772 11.6989C42.8158 12.7267 42.1084 13.6261 41.1548 14.3969C40.2013 15.1602 38.9979 15.761 37.5446 16.1994C36.0912 16.6377 34.3726 16.8569 32.3887 16.8569H25.3411V0.0113362ZM32.008 14.3856C32.777 14.3856 33.4691 14.2684 34.0842 14.0342C34.6994 13.7999 35.2185 13.4371 35.6414 12.9459C36.072 12.4547 36.3988 11.8312 36.6218 11.0754C36.8525 10.3121 36.9678 9.40145 36.9678 8.34341C36.9678 7.29293 36.8525 6.39737 36.6218 5.65674C36.3911 4.91611 36.0605 4.31152 35.6299 3.84296C35.1992 3.36684 34.6763 3.02297 34.0612 2.81137C33.4537 2.5922 32.7732 2.48262 32.0196 2.48262L32.008 14.3856Z" fill="white"/>
<path d="M45.6302 0.0113362H52.9315L56.9455 10.8374L60.6596 0.0113362L63.67 0L57.6606 16.8569L52.2279 16.8455L45.6302 0.0113362Z" fill="white"/>
<path d="M0 36.3052C0 35.5041 0.10381 34.7332 0.31143 33.9926C0.526739 33.2444 0.838169 32.5491 1.24572 31.9067C1.65327 31.2644 2.15309 30.6787 2.74519 30.1496C3.33729 29.6206 4.01014 29.1672 4.76372 28.7893C5.52499 28.4114 6.36316 28.1205 7.27822 27.9164C8.19329 27.7048 9.17756 27.599 10.231 27.599C10.9077 27.599 11.5537 27.6406 12.1688 27.7237C12.7917 27.8068 13.3761 27.924 13.9221 28.0751C14.468 28.2187 14.9717 28.3888 15.4331 28.5852C15.9021 28.7742 16.3251 28.9745 16.7019 29.1861L15.7099 31.0905C15.2793 30.8865 14.7871 30.7164 14.2335 30.5804C13.6875 30.4368 13.1185 30.365 12.5264 30.365C11.7344 30.365 11 30.5048 10.3233 30.7845C9.64663 31.0641 9.06222 31.4609 8.57008 31.9748C8.07794 32.4887 7.68962 33.1122 7.4051 33.8452C7.12828 34.5707 6.98986 35.3869 6.98986 36.2938C6.98986 37.1932 7.12828 38.0094 7.4051 38.7424C7.68193 39.468 8.06257 40.0914 8.54701 40.6129C9.03915 41.1268 9.61971 41.5274 10.2887 41.8145C10.9654 42.0942 11.6959 42.234 12.4803 42.234C13.0339 42.234 13.5876 42.1697 14.1412 42.0413C14.6949 41.9052 15.2024 41.7276 15.6638 41.5085L16.6557 43.4129C16.2789 43.6321 15.8598 43.8362 15.3985 44.0251C14.9371 44.214 14.4373 44.3841 13.899 44.5352C13.3607 44.6788 12.784 44.7922 12.1688 44.8753C11.5537 44.9584 10.9077 45 10.231 45C8.65467 45 7.23209 44.7733 5.9633 44.3198C4.7022 43.8588 3.6295 43.2353 2.74519 42.4494C1.86089 41.6558 1.18036 40.7338 0.7036 39.6833C0.234533 38.6253 0 37.4992 0 36.3052Z" fill="white"/>
<path d="M17.7976 30.1383C19.1202 29.6622 20.3006 29.1407 21.3387 28.5739C22.3845 27.9995 23.3534 27.3874 24.2454 26.7375L26.0217 28.8573C25.5757 29.1521 25.0528 29.4392 24.453 29.7189C23.8609 29.9985 23.2303 30.2517 22.5613 30.4784C21.9 30.7051 21.2233 30.9016 20.5313 31.0679C19.8392 31.2341 19.1779 31.355 18.5474 31.4306L17.7976 30.1383ZM18.7896 33.4825H25.0528V44.7166H18.7896V33.4825Z" fill="white"/>
<path d="M26.7137 33.4825H33.2653L35.999 40.783L38.6403 33.4825H41.224L36.9678 44.7166H34.5687V44.7053H31.316L26.7137 33.4825Z" fill="white"/>
<path d="M42.2621 39.0372C42.2621 38.3872 42.366 37.794 42.5736 37.2574C42.7812 36.7208 43.0657 36.2409 43.4271 35.8177C43.7962 35.3869 44.2307 35.0128 44.7305 34.6954C45.2303 34.378 45.7725 34.1135 46.3569 33.9019C46.9413 33.6903 47.5526 33.5316 48.1908 33.4258C48.8291 33.32 49.475 33.2671 50.1286 33.2671C50.9899 33.2671 51.7704 33.354 52.4701 33.5278C53.1776 33.6941 53.8043 33.9246 54.3502 34.2193C54.9039 34.5141 55.3806 34.8579 55.7805 35.2509C56.188 35.6439 56.5225 36.0633 56.784 36.5092C57.0531 36.9476 57.2492 37.401 57.3722 37.8696C57.503 38.3381 57.5683 38.7953 57.5683 39.2412L48.8483 40.2728C49.0175 41.1117 49.3558 41.7616 49.8633 42.2226C50.3708 42.6836 51.0821 42.9142 51.9972 42.9142C52.497 42.9142 52.9623 42.8537 53.3929 42.7328C53.8312 42.6119 54.1734 42.4645 54.4194 42.2907L55.3422 43.8777C55.0577 44.0213 54.7462 44.1573 54.4079 44.2858C54.0772 44.4143 53.7081 44.5277 53.3006 44.6259C52.9007 44.7166 52.4547 44.7884 51.9626 44.8413C51.4782 44.9018 50.9437 44.932 50.3593 44.932C48.9598 44.932 47.7525 44.7733 46.7375 44.4559C45.7225 44.1309 44.8805 43.7001 44.2115 43.1635C43.5502 42.6194 43.058 41.9921 42.7351 41.2817C42.4198 40.5713 42.2621 39.8232 42.2621 39.0372ZM51.9741 38.0849C51.9741 37.1025 51.8473 36.3883 51.5935 35.9424C51.3474 35.4965 50.9783 35.2736 50.4862 35.2736C50.2324 35.2736 49.9979 35.334 49.7826 35.455C49.5673 35.5759 49.3827 35.7648 49.2289 36.0218C49.0751 36.2787 48.9521 36.6112 48.8598 37.0193C48.7676 37.4199 48.7176 37.9073 48.7099 38.4817L51.9741 38.0849Z" fill="white"/>
<path d="M59.7368 26.0006H66V44.7166H59.7368V26.0006Z" fill="white"/>
</svg>
