<svg width="121" height="86" viewBox="0 0 121 86" fill="none" xmlns="http://www.w3.org/2000/svg">
<path d="M16.1719 7.34375L12.8125 0.0195312H24.707L38.9258 29.0625H26.1719L24.0234 24.4141H12.5781L10.4492 29.0625H5.50781L16.1719 7.34375ZM21.9727 19.9414L18.3008 11.9727L14.6484 19.9414H21.9727Z" fill="white"/>
<path d="M42.9102 0.0195312H54.8438C58.2031 0.0195312 61.1133 0.338542 63.5742 0.976562C66.0352 1.60156 68.0729 2.52604 69.6875 3.75C71.3021 4.97396 72.5 6.47786 73.2812 8.26172C74.0625 10.0456 74.4531 12.0898 74.4531 14.3945C74.4531 16.4518 74.0625 18.3724 73.2812 20.1562C72.5 21.9271 71.3021 23.4766 69.6875 24.8047C68.0729 26.1198 66.0352 27.1549 63.5742 27.9102C61.1133 28.6654 58.2031 29.043 54.8438 29.043H42.9102V0.0195312ZM54.1992 24.7852C55.5013 24.7852 56.6732 24.5833 57.7148 24.1797C58.7565 23.776 59.6354 23.151 60.3516 22.3047C61.0807 21.4583 61.6341 20.3841 62.0117 19.082C62.4023 17.7669 62.5977 16.1979 62.5977 14.375C62.5977 12.5651 62.4023 11.0221 62.0117 9.74609C61.6211 8.47005 61.0612 7.42839 60.332 6.62109C59.6029 5.80078 58.7174 5.20833 57.6758 4.84375C56.6471 4.46615 55.4948 4.27734 54.2188 4.27734L54.1992 24.7852Z" fill="white"/>
<path d="M77.2656 0.0195312H89.6289L96.4258 18.6719L102.715 0.0195312L107.812 0L97.6367 29.043L88.4375 29.0234L77.2656 0.0195312Z" fill="white"/>
<path d="M0 62.5508C0 61.1706 0.175781 59.8424 0.527344 58.5664C0.891927 57.2773 1.41927 56.0794 2.10938 54.9727C2.79948 53.8659 3.64583 52.8568 4.64844 51.9453C5.65104 51.0339 6.79036 50.2526 8.06641 49.6016C9.35547 48.9505 10.7747 48.4492 12.3242 48.0977C13.8737 47.7331 15.5404 47.5508 17.3242 47.5508C18.4701 47.5508 19.5638 47.6224 20.6055 47.7656C21.6602 47.9089 22.6497 48.1107 23.5742 48.3711C24.4987 48.6185 25.3516 48.9115 26.1328 49.25C26.9271 49.5755 27.6432 49.9206 28.2812 50.2852L26.6016 53.5664C25.8724 53.2148 25.0391 52.9219 24.1016 52.6875C23.1771 52.4401 22.2135 52.3164 21.2109 52.3164C19.8698 52.3164 18.6263 52.5573 17.4805 53.0391C16.3346 53.5208 15.3451 54.2044 14.5117 55.0898C13.6784 55.9753 13.0208 57.0495 12.5391 58.3125C12.0703 59.5625 11.8359 60.9688 11.8359 62.5312C11.8359 64.0807 12.0703 65.487 12.5391 66.75C13.0078 68 13.6523 69.0742 14.4727 69.9727C15.306 70.8581 16.2891 71.5482 17.4219 72.043C18.5677 72.5247 19.8047 72.7656 21.1328 72.7656C22.0703 72.7656 23.0078 72.6549 23.9453 72.4336C24.8828 72.1992 25.7422 71.8932 26.5234 71.5156L28.2031 74.7969C27.5651 75.1745 26.8555 75.526 26.0742 75.8516C25.293 76.1771 24.4466 76.4701 23.5352 76.7305C22.6237 76.9779 21.6471 77.1732 20.6055 77.3164C19.5638 77.4596 18.4701 77.5312 17.3242 77.5312C14.6549 77.5312 12.2461 77.1406 10.0977 76.3594C7.96224 75.5651 6.14583 74.4909 4.64844 73.1367C3.15104 71.7695 1.9987 70.181 1.19141 68.3711C0.397135 66.5482 0 64.6081 0 62.5508Z" fill="white"/>
<path d="M30.1367 51.9258C32.3763 51.1055 34.375 50.207 36.1328 49.2305C37.9036 48.2409 39.5443 47.1862 41.0547 46.0664L44.0625 49.7188C43.3073 50.2266 42.4219 50.7214 41.4062 51.2031C40.4036 51.6849 39.3359 52.1211 38.2031 52.5117C37.0833 52.9023 35.9375 53.2409 34.7656 53.5273C33.5938 53.8138 32.474 54.0221 31.4062 54.1523L30.1367 51.9258ZM31.8164 57.6875H42.4219V77.043H31.8164V57.6875Z" fill="white"/>
<path d="M45.2344 57.6875H56.3281L60.957 70.2656L65.4297 57.6875H69.8047L62.5977 77.043H58.5352V77.0234H53.0273L45.2344 57.6875Z" fill="white"/>
<path d="M71.5625 67.2578C71.5625 66.138 71.7383 65.1159 72.0898 64.1914C72.4414 63.2669 72.9232 62.4401 73.5352 61.7109C74.1602 60.9688 74.8958 60.3242 75.7422 59.7773C76.5885 59.2305 77.5065 58.7747 78.4961 58.4102C79.4857 58.0456 80.5208 57.7721 81.6016 57.5898C82.6823 57.4076 83.776 57.3164 84.8828 57.3164C86.3411 57.3164 87.6628 57.4661 88.8477 57.7656C90.0456 58.0521 91.1068 58.4492 92.0312 58.957C92.9688 59.4648 93.776 60.0573 94.4531 60.7344C95.1432 61.4115 95.7096 62.1341 96.1523 62.9023C96.6081 63.6576 96.9401 64.4388 97.1484 65.2461C97.3698 66.0534 97.4805 66.8411 97.4805 67.6094L82.7148 69.3867C83.0013 70.832 83.5742 71.9518 84.4336 72.7461C85.293 73.5404 86.4974 73.9375 88.0469 73.9375C88.8932 73.9375 89.681 73.8333 90.4102 73.625C91.1523 73.4167 91.7318 73.1628 92.1484 72.8633L93.7109 75.5977C93.2292 75.8451 92.7018 76.0794 92.1289 76.3008C91.569 76.5221 90.944 76.7174 90.2539 76.8867C89.5768 77.043 88.8216 77.1667 87.9883 77.2578C87.168 77.362 86.263 77.4141 85.2734 77.4141C82.9036 77.4141 80.8594 77.1406 79.1406 76.5938C77.4219 76.0339 75.9961 75.2917 74.8633 74.3672C73.7435 73.4297 72.9102 72.349 72.3633 71.125C71.8294 69.901 71.5625 68.612 71.5625 67.2578ZM88.0078 65.6172C88.0078 63.9245 87.793 62.694 87.3633 61.9258C86.9466 61.1576 86.3216 60.7734 85.4883 60.7734C85.0586 60.7734 84.6615 60.8776 84.2969 61.0859C83.9323 61.2943 83.6198 61.6198 83.3594 62.0625C83.099 62.5052 82.8906 63.0781 82.7344 63.7812C82.5781 64.4714 82.4935 65.3112 82.4805 66.3008L88.0078 65.6172Z" fill="white"/>
<path d="M101.152 44.7969H111.758V77.043H101.152V44.7969Z" fill="white"/>
<line x1="1" y1="85" x2="120" y2="85" stroke="white" stroke-width="2" stroke-linecap="round"/>
</svg>
